#!OML:ASF E:\motion texture\Top Level 1\Subject 1\Session 1\male.ASF
:FULLY-SPECIFIED
:DEGREES
259
root -6.44929 17.6031 5.66395 492.178 -84.6825 -487.149
lowerback -1.53107 1.23654 2.69784
upperback -1.78911 1.61139 0.13282
thorax -0.90513 0.769011 -1.36235
lowerneck -7.15696 -9.2183 -11.8874
upperneck 20.6806 -12.1552 3.53469
head 8.58461 -6.48656 1.85483
rclavicle 4.56584e-015 9.54166e-015
rhumerus -29.0443 4.20558 -89.0369
rradius 71.5935
rwrist -15.0694
rhand -19.7123 -46.7592
rfingers 7.12502
rthumb 6.61758 -76.6358
lclavicle 4.56584e-015 9.54166e-015
lhumerus -33.1036 3.32237 91.3967
lradius 83.9321
lwrist 19.7456
lhand -14.1999 45.9934
lfingers 7.12502
lthumb 11.9364 75.6331
rfemur -8.33937 -1.02705 26.2895
rtibia 55.9986
rfoot 9.16983 -13.3997
rtoes 2.83186
lfemur -26.8881 -2.19578 -13.2043
ltibia 29.8873
lfoot -5.20353 2.40569
ltoes -2.25328
260
root -6.62156 17.6154 5.67109 496.278 -84.9371 -491.48
lowerback -1.40529 1.15348 2.28695
upperback -1.83461 1.50781 0.0394369
thorax -1.03422 0.719606 -1.23248
lowerneck -7.21913 -9.27631 -11.9575
upperneck 20.617 -12.2792 3.83074
head 8.60756 -6.52117 1.9456
rclavicle -5.41378e-015 -1.31198e-014
rhumerus -29.4454 5.86933 -89.7395
rradius 72.1439
rwrist -14.9191
rhand -19.5458 -46.8621
rfingers 7.12502
rthumb 6.77828 -76.7336
lclavicle -5.41378e-015 -1.31198e-014
lhumerus -32.9777 2.98872 91.6556
lradius 83.7802
lwrist 19.0674
lhand -14.2016 45.6948
lfingers 7.12502
lthumb 11.9347 75.3346
rfemur -9.43504 -1.54785 25.5922
rtibia 58.0519
rfoot 9.88558 -14.4946
rtoes 4.06881
lfemur -25.893 -2.18689 -13.8908
ltibia 29.7888
lfoot -5.81812 2.49125
ltoes -2.34881
261
root -6.79172 17.6292 5.67692 499.788 -85.1228 -495.206
lowerback -1.29014 1.05711 1.96782
upperback -1.87807 1.38401 -0.0217387
thorax -1.15365 0.659647 -1.12022
lowerneck -7.25838 -9.33837 -12.0334
upperneck 20.499 -12.4114 4.1485
head 8.61087 -6.55755 2.04541
rclavicle -2.3792e-015 -6.75868e-015
rhumerus -29.8305 7.58226 -90.4687
rradius 72.7861
rwrist -14.7756
rhand -19.3449 -46.911
rfingers 7.12502
rthumb 6.97224 -76.7762
lclavicle -2.3792e-015 -6.75868e-015
lhumerus -32.8063 2.64742 91.8796
lradius 83.6205
lwrist 18.3894
lhand -14.1931 45.3759
lfingers 7.12502
lthumb 11.9429 75.0153
rfemur -10.5473 -2.10979 25.0226
rtibia 59.9994
rfoot 9.90476 -15.6791
rtoes 4.8002
lfemur -24.8773 -2.19421 -14.4608
ltibia 29.6061
lfoot -6.38719 2.58016
ltoes -2.45241
262
root -6.96001 17.6449 5.68135 502.459 -85.2462 -498.077
lowerback -1.18683 0.946588 1.74402
upperback -1.91893 1.23972 -0.0474757
thorax -1.26223 0.588839 -1.02421
lowerneck -7.27305 -9.40579 -12.1093
upperneck 20.3292 -12.5532 4.48064
head 8.59451 -6.59688 2.15073
rclavicle 2.21886e-015 1.11319e-014
rhumerus -30.2033 9.31761 -91.2169
rradius 73.5239
rwrist -14.686
rhand -19.1103 -46.8732
rfingers 7.12502
rthumb 7.1987 -76.7307
lclavicle 2.21886e-015 1.11319e-014
lhumerus -32.593 2.30911 92.0682
lradius 83.4589
lwrist 17.7291
lhand -14.1653 45.0302
lfingers 7.12502
lthumb 11.9697 74.668
rfemur -11.6712 -2.70349 24.5883
rtibia 61.8038
rfoot 9.40253 -16.8584
rtoes 5.50231
lfemur -23.8389 -2.22184 -14.9059
ltibia 29.3367
lfoot -6.90732 2.67596
ltoes -2.63083
263
root -7.12664 17.663 5.68445 504.086 -85.3287 -499.892
lowerback -1.09303 0.817729 1.61326
upperback -1.9586 1.0701 -0.0396742
thorax -1.36306 0.504602 -0.945162
lowerneck -7.26328 -9.47886 -12.1836
upperneck 20.1171 -12.7053 4.82563
head 8.56172 -6.64006 2.26045
rclavicle 1.15513e-014 -8.74653e-015
rhumerus -30.5713 11.0326 -91.976
rradius 74.36
rwrist -14.6685
rhand -18.8225 -46.7009
rfingers 7.12502
rthumb 7.4765 -76.5488
lclavicle 1.15513e-014 -8.74653e-015
lhumerus -32.3514 1.98073 92.218
lradius 83.3077
lwrist 17.0996
lhand -14.1333 44.6377
lfingers 7.12502
lthumb 12.0005 74.2737
rfemur -12.7968 -3.32333 24.2822
rtibia 63.4247
rfoot 8.55835 -17.9403
rtoes 6.37964
lfemur -22.7801 -2.28189 -15.232
ltibia 28.9875
lfoot -7.38169 2.78661
ltoes -2.82081
264
root -7.29195 17.6834 5.68646 505.018 -85.3738 -500.998
lowerback -1.01379 0.680011 1.54809
upperback -1.99692 0.888198 -0.00556502
thorax -1.45336 0.413689 -0.875013
lowerneck -7.2401 -9.56098 -12.2496
upperneck 19.8801 -12.8714 5.17467
head 8.51987 -6.68932 2.36923
rclavicle 1.13338e-014 2.78299e-015
rhumerus -30.9392 12.6835 -92.7271
rradius 75.2902
rwrist -14.7179
rhand -18.361 -46.4103
rfingers 7.12502
rthumb 7.92197 -76.2419
lclavicle 1.13338e-014 2.78299e-015
lhumerus -32.0864 1.66564 92.3324
lradius 83.1712
lwrist 16.4988
lhand -14.1242 44.2498
lfingers 7.12502
lthumb 12.0093 73.8852
rfemur -13.9217 -3.9308 24.0693
rtibia 64.8438
rfoot 7.62244 -18.9045
rtoes 7.4832
lfemur -21.6948 -2.36391 -15.4699
ltibia 28.5557
lfoot -7.8095 2.92471
ltoes -3.01826
265
root -7.4563 17.7061 5.68759 505.602 -85.3919 -501.741
lowerback -0.946985 0.538741 1.51887
upperback -2.0364 0.701338 0.0463844
thorax -1.53724 0.319992 -0.805974
lowerneck -7.2081 -9.65227 -12.3175
upperneck 19.6283 -13.0532 5.54096
head 8.47516 -6.74527 2.4823
rclavicle -2.4817e-015 4.77083e-015
rhumerus -31.3121 14.2475 -93.4571
rradius 76.3089
rwrist -14.8273
rhand -17.7176 -45.9428
rfingers 7.12502
rthumb 8.54289 -75.75
lclavicle -2.4817e-015 4.77083e-015
lhumerus -31.8004 1.37604 92.4115
lradius 83.0465
lwrist 15.9039
lhand -14.1031 43.8628
lfingers 7.12502
lthumb 12.0297 73.497
rfemur -15.0438 -4.5013 23.911
rtibia 66.0529
rfoot 6.72682 -19.7267
rtoes 8.62983
lfemur -20.5857 -2.46497 -15.6562
ltibia 28.0484
lfoot -8.19276 3.09538
ltoes -3.24919
266
root -7.61964 17.7306 5.68807 506.136 -85.3889 -502.417
lowerback -0.893454 0.399588 1.50226
upperback -2.07752 0.517121 0.110682
thorax -1.6148 0.22758 -0.730712
lowerneck -7.1763 -9.75602 -12.3906
upperneck 19.3707 -13.2544 5.92521
head 8.43317 -6.80983 2.59919
rclavicle 8.43592e-015 3.97569e-016
rhumerus -31.6888 15.7067 -94.1519
rradius 77.4068
rwrist -14.9855
rhand -16.9223 -45.2561
rfingers 7.12502
rthumb 9.31032 -75.0305
lclavicle 8.43592e-015 3.97569e-016
lhumerus -31.4936 1.11489 92.4616
lradius 82.9337
lwrist 15.3065
lhand -14.1466 43.5263
lfingers 7.12502
lthumb 11.9877 73.163
rfemur -16.1661 -5.01332 23.7775
rtibia 67.0595
rfoot 5.9178 -20.3673
rtoes 9.60987
lfemur -19.4622 -2.57891 -15.8197
ltibia 27.4773
lfoot -8.53849 3.30637
ltoes -3.42935
267
root -7.78187 17.7563 5.68805 506.956 -85.3751 -503.359
lowerback -0.856324 0.266895 1.46891
upperback -2.12352 0.341161 0.179137
thorax -1.68758 0.139604 -0.641314
lowerneck -7.13754 -9.87201 -12.4696
upperneck 19.1089 -13.4762 6.32939
head 8.39366 -6.88387 2.72081
rclavicle 3.05631e-015 2.78299e-015
rhumerus -32.0721 17.0637 -94.8089
rradius 78.5729
rwrist -15.1903
rhand -16.0137 -44.4003
rfingers 7.12502
rthumb 10.187 -74.1336
lclavicle 3.05631e-015 2.78299e-015
lhumerus -31.1659 0.890437 92.4866
lradius 82.8285
lwrist 14.6882
lhand -14.2476 43.2584
lfingers 7.12502
lthumb 11.8903 72.9008
rfemur -17.2938 -5.45996 23.6363
rtibia 67.8786
rfoot 5.16791 -20.8075
rtoes 10.2273
lfemur -18.3347 -2.70288 -15.9948
ltibia 26.8534
lfoot -8.84875 3.5503
ltoes -3.60492
268
root -7.94265 17.7826 5.6874 508.132 -85.3517 -504.631
lowerback -0.825475 0.14304 1.414
upperback -2.18399 0.176692 0.246676
thorax -1.7709 0.0575497 -0.540465
lowerneck -7.08641 -9.99906 -12.5475
upperneck 18.8494 -13.7187 6.7481
head 8.35722 -6.96781 2.84444
rclavicle 1.62755e-015 6.55989e-015
rhumerus -32.48 18.3248 -95.4413
rradius 79.8071
rwrist -15.4394
rhand -15.1819 -43.3688
rfingers 7.12502
rthumb 10.9893 -73.0612
lclavicle 1.62755e-015 6.55989e-015
lhumerus -30.8332 0.697028 92.484
lradius 82.7335
lwrist 14.0507
lhand -14.3804 43.002
lfingers 7.12502
lthumb 11.7623 72.6518
rfemur -18.4301 -5.83624 23.4842
rtibia 68.5185
rfoot 4.47557 -21.035
rtoes 10.5112
lfemur -17.2122 -2.83232 -16.1882
ltibia 26.1812
lfoot -9.12696 3.82427
ltoes -3.66994
269
root -8.1015 17.809 5.68618 509.796 -85.3314 -506.368
lowerback -0.800192 0.0257665 1.31644
upperback -2.2517 0.0206446 0.311224
thorax -1.85767 -0.019565 -0.418495
lowerneck -7.04536 -10.1382 -12.6276
upperneck 18.5935 -13.9794 7.18158
head 8.32857 -7.0599 2.96973
rclavicle 3.24889e-015 -6.55989e-015
rhumerus -32.8969 19.5057 -96.0449
rradius 81.1011
rwrist -15.6927
rhand -14.4894 -42.2588
rfingers 7.12502
rthumb 11.6572 -71.9145
lclavicle 3.24889e-015 -6.55989e-015
lhumerus -30.4941 0.534259 92.4591
lradius 82.6627
lwrist 13.4019
lhand -14.5434 42.742
lfingers 7.12502
lthumb 11.6051 72.4007
rfemur -19.5738 -6.15021 23.3006
rtibia 68.9815
rfoot 3.82532 -21.0397
rtoes 10.519
lfemur -16.1016 -2.97206 -16.4239
ltibia 25.4678
lfoot -9.37589 4.12273
ltoes -3.64695
